<?xml version="1.0" standalone="no"?>
<!DOCTYPE svg PUBLIC "-//W3C//DTD SVG 20010904//EN"
 "http://www.w3.org/TR/2001/REC-SVG-20010904/DTD/svg10.dtd">
<svg version="1.0" xmlns="http://www.w3.org/2000/svg"
 width="512.000000pt" height="512.000000pt" viewBox="0 0 512.000000 512.000000"
 preserveAspectRatio="xMidYMid meet">

<g transform="translate(0.000000,512.000000) scale(0.100000,-0.100000)"
fill="#000000" stroke="none">
<path d="M2 3703 l3 -1417 48 -16 c26 -9 60 -26 75 -37 15 -11 38 -23 52 -26
14 -4 36 -16 50 -26 l24 -19 -27 -13 c-22 -10 -30 -10 -44 3 -10 9 -42 21 -71
27 -30 6 -63 18 -75 26 -12 8 -25 15 -29 15 -5 0 -8 -85 -8 -188 l0 -188 70
-34 c99 -48 125 -78 123 -142 -1 -39 -7 -56 -27 -77 -25 -26 -111 -61 -149
-61 -11 0 -17 -8 -17 -25 0 -20 5 -25 24 -25 14 0 27 4 31 9 5 9 14 9 95 -5
19 -3 32 -2 28 2 -11 10 11 34 31 34 9 0 25 9 35 21 12 15 25 20 43 16 19 -3
32 2 50 22 33 34 47 61 33 61 -13 0 -13 47 0 55 5 3 10 17 10 30 0 12 7 25 15
29 8 3 15 12 15 21 0 12 6 14 28 9 15 -4 29 -8 31 -10 2 -2 10 3 18 11 9 10
24 12 45 8 22 -4 29 -3 24 5 -4 7 -14 12 -22 12 -10 0 -14 8 -12 22 2 17 16
28 57 44 30 11 56 25 58 31 2 6 -34 29 -80 52 -47 22 -99 54 -117 71 -18 16
-38 30 -45 30 -18 0 -48 37 -36 44 10 7 178 -57 276 -106 84 -41 215 -130 215
-146 0 -15 76 -92 91 -92 6 0 7 -5 4 -11 -4 -6 -1 -10 6 -9 21 3 59 -11 59
-22 0 -5 5 -6 10 -3 6 3 12 0 15 -7 3 -8 15 -14 26 -15 26 -2 42 -23 64 -87
10 -28 21 -55 25 -61 5 -5 13 -27 18 -47 l10 -38 -68 0 c-46 0 -71 -4 -79 -14
-8 -10 -9 -16 -1 -21 11 -7 3 -104 -10 -118 -8 -9 -30 67 -30 104 0 20 -3 21
-55 16 -30 -3 -67 -14 -82 -25 -16 -11 -46 -27 -67 -36 -52 -22 -68 -7 -38 33
15 21 18 31 9 34 -7 3 -5 6 5 6 9 1 41 6 70 12 l53 12 -32 11 c-17 6 -35 14
-38 18 -4 4 -14 4 -22 1 -12 -5 -12 -7 -2 -14 8 -4 10 -12 5 -16 -10 -10 -347
-12 -361 -2 -5 4 -30 3 -55 -1 -25 -5 -66 -7 -91 -3 -29 3 -49 1 -53 -6 -4 -6
-15 -11 -24 -12 -22 0 -92 -84 -92 -110 0 -33 27 -87 49 -99 33 -17 16 -29
-22 -16 -42 14 -64 36 -73 71 -5 22 -11 26 -30 21 -16 -4 -24 -2 -24 6 0 9 -3
8 -10 -2 -14 -21 -12 -67 3 -73 9 -4 9 -6 0 -6 -10 -1 -13 -128 -13 -602 0
-517 2 -600 14 -590 9 7 17 8 20 2 8 -12 77 6 92 25 9 11 13 9 22 -11 11 -24
10 -25 -27 -25 -22 0 -44 -6 -51 -15 -11 -13 191 -15 1809 -15 1212 0 1820 3
1816 10 -3 6 1 10 9 10 8 0 18 -5 21 -10 3 -6 23 -9 43 -9 30 2 32 3 10 6 -56
9 -25 21 67 28 52 4 95 11 95 16 0 5 -7 9 -16 9 -9 0 -14 6 -12 12 11 31 171
42 326 23 44 -5 62 -4 62 4 0 7 21 10 58 9 l57 -1 -50 -7 c-49 -6 -49 -6 -23
-18 15 -6 34 -9 42 -6 13 5 89 -4 178 -21 24 -5 47 9 35 21 -2 3 -29 9 -58 14
-213 39 -225 42 -213 62 13 20 249 -29 278 -58 8 -7 25 -14 38 -16 41 -6 81
-37 75 -59 -5 -18 3 -19 199 -19 l204 0 0 868 0 867 -37 0 c-50 0 -50 24 0 48
l37 19 0 1659 0 1659 -2560 0 -2560 0 2 -1417z m2389 1387 c5 -8 37 -76 73
-150 69 -147 75 -154 257 -321 176 -162 177 -163 194 -149 8 6 23 9 35 5 14
-5 22 -1 26 12 4 10 22 50 40 89 19 39 34 77 34 83 0 6 5 11 11 11 7 0 9 -9 5
-22 -24 -80 -35 -117 -44 -143 -6 -16 -18 -55 -26 -86 -19 -65 -48 -87 -91
-67 -14 6 -25 15 -25 20 0 4 -3 7 -7 6 -13 -5 -174 149 -218 207 -17 22 -48
56 -70 77 -42 39 -67 83 -135 233 -54 121 -53 120 -87 123 -24 2 -44 -8 -94
-49 -35 -29 -79 -68 -97 -87 -24 -27 -35 -33 -43 -25 -9 9 -7 16 5 28 9 9 16
22 16 29 0 12 131 147 175 181 24 18 55 16 66 -5z m927 -245 c13 -33 32 -80
42 -105 84 -212 113 -257 206 -316 171 -109 455 -370 527 -484 65 -103 115
-205 141 -287 35 -111 32 -114 -12 -12 -20 47 -45 97 -54 112 -10 14 -18 29
-18 32 0 2 -21 35 -46 72 -69 101 -248 280 -344 343 -12 8 -32 22 -44 30 -11
9 -50 31 -86 50 -36 18 -66 37 -68 41 -2 5 -18 17 -35 28 -20 12 -44 43 -63
83 -45 90 -64 134 -64 150 0 8 -4 18 -8 24 -4 5 -14 27 -21 49 -42 124 -88
184 -132 170 -11 -4 -36 -22 -57 -41 -61 -58 -82 -70 -93 -53 -15 24 -11 33
39 81 67 66 113 97 142 95 20 -2 29 -13 48 -62z m-1195 -32 c-6 -2 -21 -24
-33 -49 -22 -44 -40 -57 -40 -29 0 8 5 15 10 15 6 0 10 5 10 11 0 7 10 27 21
46 16 26 24 32 33 22 8 -8 8 -13 -1 -16z m-465 3 c15 -8 74 -63 132 -122 58
-58 116 -110 130 -114 15 -4 26 -15 28 -28 5 -30 22 -28 22 2 0 13 7 27 16 30
8 3 12 10 9 16 -4 6 3 25 14 44 12 18 21 41 21 50 0 19 16 21 26 4 4 -6 2 -14
-4 -16 -7 -2 -12 -8 -12 -13 0 -4 -11 -32 -24 -61 -13 -29 -28 -66 -35 -81 -8
-19 -17 -27 -26 -23 -20 7 -19 -18 0 -34 12 -10 13 -16 4 -26 -15 -18 -19 -17
-48 7 -21 17 -22 22 -10 30 12 8 11 11 -5 20 -23 14 -106 96 -106 105 0 17
-150 154 -169 154 -24 0 -30 37 -9 58 15 15 13 15 46 -2z m-58 -75 c0 -5 -6
-14 -14 -20 -12 -10 -13 -8 -9 8 5 21 23 30 23 12z m855 -516 c0 -22 -31 -33
-47 -17 -17 17 -1 44 24 40 15 -2 23 -10 23 -23z m-1079 -220 c-7 -11 -19 -31
-25 -44 -10 -17 -16 -20 -24 -12 -8 8 -5 15 12 27 14 10 21 23 18 34 -3 13 1
18 14 17 16 -1 17 -4 5 -22z m1183 -9 c14 -16 -7 -96 -24 -96 -18 1 -45 27
-45 44 0 21 31 65 46 66 6 0 17 -6 23 -14z m-350 -43 c-15 -18 -34 -1 -25 22
5 14 9 15 21 5 12 -10 13 -16 4 -27z m436 -3 c3 -5 2 -10 -4 -10 -5 0 -13 5
-16 10 -3 6 -2 10 4 10 5 0 13 -4 16 -10z m63 -13 c2 -12 -3 -17 -17 -17 -12
0 -21 6 -21 13 0 31 32 34 38 4z m280 -4 c-3 -30 -25 -42 -34 -19 -9 22 2 46
21 46 12 0 15 -8 13 -27z m-1668 -7 c0 -8 -5 -18 -10 -21 -6 -4 -22 -25 -37
-48 -14 -22 -34 -50 -45 -61 -11 -12 -24 -31 -29 -43 -5 -13 -13 -23 -19 -23
-15 0 -12 40 4 46 8 3 12 12 9 20 -3 8 1 14 10 14 9 0 26 20 38 45 15 31 25
41 31 33 5 -9 11 -3 20 20 13 33 28 43 28 18z m1478 -19 c4 -21 -16 -23 -24
-2 -4 8 -15 15 -25 15 -10 0 -19 4 -19 9 0 16 65 -4 68 -22z m-370 -3 c15 -10
22 -24 20 -37 -2 -18 -10 -22 -37 -23 -42 0 -53 -19 -16 -26 31 -6 75 11 75
30 0 15 36 16 45 1 4 -6 13 -8 20 -5 7 2 16 -2 19 -10 9 -24 26 -16 26 14 l0
27 20 -30 c11 -16 20 -25 20 -19 0 7 10 9 25 6 26 -5 33 6 14 25 -15 15 -4 43
16 43 9 0 35 -20 59 -45 25 -25 53 -45 65 -45 12 0 21 -4 21 -9 0 -17 -20 -23
-34 -12 -23 19 -28 -15 -6 -41 10 -13 20 -21 22 -18 1 3 10 19 19 35 11 21 22
29 37 28 12 -2 22 2 22 7 0 6 -11 10 -25 10 -24 0 -75 35 -75 52 0 6 63 38 76
38 3 0 9 -12 15 -26 9 -26 10 -26 30 -8 21 18 21 18 50 -14 16 -17 36 -32 44
-32 8 0 14 -3 14 -7 -4 -23 3 -34 19 -32 30 4 72 -19 66 -36 -5 -13 -11 -12
-41 6 -28 17 -37 19 -43 9 -10 -16 -2 -40 14 -40 6 0 23 -6 38 -14 22 -12 30
-12 45 -1 13 9 24 10 34 4 10 -6 11 -9 1 -9 -8 0 -10 -5 -5 -12 4 -7 6 -22 5
-34 -3 -20 33 -54 57 -54 6 0 30 -14 55 -30 42 -29 66 -64 52 -78 -8 -8 46
-42 56 -36 5 3 18 -6 29 -20 14 -18 30 -26 51 -26 25 0 29 -3 25 -20 -3 -11 1
-23 9 -28 11 -6 11 -12 -1 -36 -19 -36 -19 -36 9 -36 15 0 26 7 29 18 4 13 5
12 6 -5 0 -12 -3 -25 -9 -28 -15 -9 -12 -25 4 -25 10 0 14 -9 13 -27 -2 -21
-8 -28 -25 -28 -12 0 -21 -4 -20 -10 4 -31 12 -45 23 -45 10 0 12 -13 8 -52
-4 -45 -2 -56 16 -72 16 -15 18 -22 10 -33 -9 -10 -7 -22 7 -48 22 -41 41 -45
54 -10 12 31 26 32 36 3 9 -28 6 -69 -9 -114 l-12 -34 -28 25 c-15 14 -27 30
-27 35 0 18 -42 48 -60 43 -13 -4 -23 4 -34 26 l-16 31 -68 -6 c-37 -3 -70 -8
-74 -11 -5 -2 -8 2 -8 10 0 8 7 18 16 21 13 5 15 16 11 54 -9 89 -27 143 -51
152 -29 11 -48 41 -75 119 -12 35 -31 75 -42 89 -10 14 -19 30 -19 37 0 21
-44 52 -82 59 -25 5 -55 23 -90 55 -51 46 -90 67 -115 63 -6 -2 -14 2 -18 8
-9 14 -35 12 -30 -2 3 -7 1 -19 -3 -26 -12 -18 -83 19 -116 62 -43 58 -144 62
-193 8 -46 -50 -50 -57 -58 -82 -9 -30 -22 -40 -52 -40 -29 0 -61 -35 -74 -82
-7 -28 -15 -38 -30 -38 -11 0 -24 -11 -31 -25 -6 -14 -14 -25 -18 -25 -4 0
-15 -25 -25 -55 -20 -66 -57 -100 -117 -110 -25 -5 -52 -17 -65 -31 -14 -15
-33 -24 -50 -24 -15 1 -39 -2 -53 -5 -22 -6 -32 1 -68 44 -23 27 -42 56 -42
65 0 16 -39 48 -51 41 -4 -3 -10 2 -13 11 -5 13 -9 14 -20 5 -8 -7 -34 -11
-59 -10 -32 2 -52 -3 -75 -20 -18 -12 -32 -27 -32 -32 0 -12 63 -12 76 0 15
14 54 -6 54 -28 0 -11 9 -22 19 -26 28 -8 15 -35 -16 -35 -16 0 -27 -7 -30
-20 -3 -11 -13 -20 -22 -20 -11 0 -12 -3 -4 -8 8 -5 9 -13 3 -22 -6 -8 -10
-11 -10 -7 0 4 -8 3 -19 -2 -19 -10 -34 -71 -25 -96 5 -11 10 -12 25 -2 14 9
19 21 17 46 -4 50 20 61 70 33 22 -12 52 -22 67 -22 14 0 36 -5 48 -12 29 -16
83 -11 114 9 15 10 40 16 60 14 19 -1 41 3 48 9 8 7 24 10 35 7 10 -3 24 1 30
8 6 7 20 11 30 8 15 -4 20 0 20 13 0 17 1 17 14 -1 13 -18 15 -18 39 11 15 16
27 23 27 15 0 -23 30 8 31 33 0 11 3 15 6 8 3 -8 9 -10 16 -3 15 11 86 51 92
51 3 0 5 -9 5 -20 0 -11 7 -20 15 -20 8 0 12 -6 9 -14 -4 -9 7 -18 33 -26 47
-16 63 -28 63 -49 0 -10 11 -28 25 -41 16 -15 25 -35 25 -54 0 -17 7 -49 15
-71 14 -40 20 -115 9 -115 -4 0 -19 15 -35 33 -16 17 -29 28 -30 22 -4 -36 6
-83 22 -103 21 -28 25 -67 7 -78 -6 -4 -20 4 -33 19 -28 36 -35 34 -35 -13 0
-25 -5 -40 -12 -40 -8 0 -14 -15 -15 -35 -3 -34 3 -40 34 -36 9 1 12 -17 10
-67 -1 -53 2 -74 15 -88 9 -11 18 -30 20 -44 4 -34 29 -31 40 5 5 17 12 36 14
44 8 26 34 -9 30 -42 -2 -17 0 -42 5 -54 5 -14 4 -42 -3 -72 -13 -57 -5 -103
16 -95 8 3 12 12 10 19 -3 8 -1 21 4 31 16 28 27 -58 27 -221 0 -132 2 -150
17 -153 16 -3 20 3 58 93 7 17 15 65 19 108 3 42 11 78 16 79 14 2 45 -64 47
-98 0 -16 -4 -58 -9 -94 -11 -70 -8 -90 13 -90 12 0 36 32 40 55 14 86 13 107
-8 112 -19 5 -20 11 -13 67 4 34 8 80 9 103 1 23 5 45 9 49 11 11 29 -49 20
-66 -5 -8 -8 -32 -7 -52 2 -24 -2 -38 -9 -39 -7 0 -1 -4 11 -10 30 -12 42 -5
35 21 -4 15 0 20 16 20 12 0 21 6 21 16 0 8 11 31 25 51 28 42 25 57 -11 41
-20 -10 -28 -8 -42 6 -16 16 -16 18 1 27 9 6 17 18 17 28 0 24 20 31 64 24 32
-5 35 -3 41 23 4 16 15 48 26 71 23 48 25 168 4 177 -7 2 -15 22 -19 45 -3 22
-14 46 -24 53 -9 7 -17 22 -17 33 0 11 -7 20 -15 20 -8 0 -14 -7 -12 -16 1
-11 -7 -19 -23 -23 -23 -6 -25 -11 -25 -56 0 -28 -4 -50 -10 -50 -17 0 -30 37
-22 66 11 40 0 89 -19 88 -13 -1 -15 8 -11 50 2 28 9 59 14 69 5 10 5 17 -1
17 -13 0 -91 -74 -91 -87 0 -11 -40 -26 -48 -18 -3 2 16 26 41 52 30 31 42 50
34 55 -7 4 5 21 33 48 29 26 40 43 32 46 -6 3 -10 10 -6 15 3 5 -5 9 -18 10
l-23 0 23 16 c12 8 22 22 22 29 0 8 4 14 9 14 6 0 13 21 17 48 4 26 10 49 13
52 15 11 51 78 51 94 0 22 27 20 73 -4 27 -15 37 -17 37 -7 0 13 32 46 57 61
9 5 10 -1 3 -22 -9 -35 -1 -122 12 -122 5 0 6 6 2 13 -5 9 -4 9 6 0 14 -13 18
-59 6 -84 -14 -30 43 -9 59 22 8 15 20 31 26 35 20 12 1 -45 -27 -82 -24 -30
-24 -33 -7 -43 17 -9 17 -11 -2 -25 -11 -9 -14 -16 -7 -16 6 0 12 -6 12 -14 0
-9 -16 -17 -41 -21 -46 -8 -106 -55 -95 -73 5 -9 13 -9 28 -1 16 9 36 7 84 -6
68 -18 94 -15 94 10 0 8 5 15 10 15 10 0 14 -13 11 -42 -2 -20 15 -23 55 -8
22 9 29 7 41 -10 8 -11 22 -20 31 -20 9 -1 30 -12 47 -25 25 -21 29 -31 30
-77 0 -47 -2 -53 -20 -51 -30 4 -65 -6 -65 -18 0 -7 22 -10 60 -7 58 3 64 0
53 -29 -7 -18 -23 -16 -23 3 0 12 -10 14 -52 12 -36 -2 -52 -7 -50 -15 1 -7
-7 -22 -17 -32 -17 -17 -19 -29 -14 -77 5 -47 3 -58 -11 -66 -28 -16 -39 -57
-22 -83 20 -30 3 -59 -17 -31 -19 25 -47 14 -47 -18 0 -14 5 -28 10 -31 11 -7
14 -68 3 -78 -3 -4 -12 -2 -20 4 -10 9 -11 15 -2 26 9 10 8 18 -6 34 -11 11
-20 37 -21 58 -1 21 -4 43 -8 49 -3 6 -4 16 -1 24 10 29 13 148 4 154 -6 4 -6
11 1 19 7 8 9 22 6 32 -3 10 -1 35 3 56 5 21 5 39 0 43 -5 3 -9 -3 -9 -14 0
-13 -7 -18 -22 -18 -22 1 -23 -2 -20 -69 6 -122 6 -188 0 -267 -6 -83 -2 -97
25 -92 10 1 17 -4 17 -13 0 -12 -7 -14 -35 -9 -22 4 -35 3 -35 -4 0 -10 24
-14 67 -10 18 1 22 -4 21 -29 -1 -20 -6 -31 -16 -31 -9 0 -13 -7 -9 -20 5 -19
-19 -78 -45 -111 -7 -9 -26 -19 -42 -23 -16 -4 -30 -15 -33 -26 -6 -24 -11
-25 -35 -3 -25 23 -52 6 -55 -33 -9 -99 -16 -136 -29 -141 -8 -3 -14 -14 -14
-24 0 -20 -27 -68 -45 -81 -19 -14 -27 -8 -23 17 3 14 -1 30 -9 36 -9 8 -10
15 -3 24 6 7 9 17 8 21 -3 10 5 14 28 14 14 0 14 -3 4 -15 -11 -13 -10 -14 4
-9 11 4 16 18 16 43 0 48 -13 69 -33 52 -12 -9 -16 -9 -19 1 -8 22 -37 -9 -31
-32 3 -12 0 -20 -7 -20 -9 0 -10 -3 -1 -14 23 -28 -27 -99 -63 -90 -15 3 -29
-3 -45 -20 -13 -13 -29 -22 -36 -20 -8 4 -16 -6 -20 -26 -6 -26 -11 -31 -32
-28 -44 5 -50 30 -15 65 38 38 48 74 31 115 -11 27 -14 29 -20 12 -4 -10 -8
-33 -8 -51 -1 -32 -53 -128 -64 -117 -3 3 -19 6 -36 6 -39 1 -30 18 10 18 16
0 29 5 29 11 0 7 6 17 14 23 16 13 29 86 15 86 -5 0 -9 -4 -9 -10 0 -20 -55
-61 -77 -57 -13 2 -23 0 -23 -4 0 -5 -12 -9 -26 -9 -15 0 -24 -5 -22 -12 9
-27 -33 -50 -96 -53 -33 -2 -74 -6 -89 -10 -24 -6 -29 -4 -34 14 -3 11 -9 21
-14 21 -13 0 -52 48 -55 67 -4 27 16 46 33 32 10 -9 17 -8 31 3 9 9 22 13 29
11 8 -3 10 6 6 30 -3 19 -1 37 4 40 14 9 39 -16 50 -48 8 -25 15 -30 44 -32
18 -1 37 4 41 10 6 9 11 8 18 -3 14 -21 12 -30 -5 -30 -8 0 -15 -6 -15 -14 0
-8 -7 -16 -15 -20 -23 -9 -18 -28 8 -24 12 2 22 9 22 16 0 7 6 17 14 22 20 12
25 59 8 79 -25 29 -19 62 14 74 29 11 29 12 29 94 0 52 -4 83 -11 83 -5 0 -8
4 -4 9 3 5 -3 12 -12 14 -16 4 -16 6 2 12 20 6 20 11 13 83 -5 49 -3 98 4 134
l12 56 -39 51 c-22 28 -47 51 -57 51 -22 0 -24 16 -4 23 13 5 13 10 -1 38 -15
31 -17 32 -24 11 -5 -13 -14 -20 -23 -16 -22 8 -28 -13 -8 -28 20 -14 34 -43
25 -52 -3 -3 -12 2 -19 12 -15 20 -27 12 -18 -12 3 -9 15 -16 26 -16 12 0 17
-4 12 -12 -13 -20 -10 -58 3 -58 15 0 18 -16 5 -24 -14 -8 -7 -45 11 -59 13
-9 15 -21 11 -49 -6 -33 -10 -38 -35 -38 -24 0 -28 4 -31 33 -3 28 -6 32 -30
30 -17 -1 -28 4 -31 16 -3 14 1 16 24 13 17 -3 29 0 29 7 0 6 -5 11 -11 11 -6
0 -8 8 -5 18 5 13 -1 22 -16 30 -21 10 -20 11 15 11 20 1 37 6 37 11 0 7 -13
8 -34 5 -27 -5 -36 -3 -44 11 -8 15 -10 11 -7 -19 2 -20 -1 -37 -5 -37 -5 0
-7 -7 -4 -15 4 -9 0 -15 -10 -15 -9 0 -15 -3 -15 -7 4 -22 -3 -33 -18 -33 -13
0 -14 -3 -6 -8 10 -6 10 -17 2 -47 -15 -54 -24 -63 -56 -57 -26 5 -27 4 -10
-12 19 -20 22 -32 8 -41 -6 -3 -15 4 -21 15 -8 16 -17 19 -37 14 -18 -5 -24
-4 -19 5 4 6 11 9 15 7 4 -3 13 -1 21 5 11 6 8 9 -12 9 -29 0 -54 -20 -83 -64
-21 -32 -35 -25 -35 17 0 46 -11 78 -23 70 -5 -3 -16 2 -23 12 -11 14 -12 2
-9 -75 2 -51 9 -107 15 -125 8 -25 7 -40 -5 -69 -9 -21 -14 -45 -11 -53 4 -11
1 -13 -15 -8 -15 5 -22 2 -26 -14 -7 -28 -14 -27 -56 14 -28 28 -44 35 -74 35
-36 0 -41 4 -73 56 l-34 57 23 18 c14 12 18 19 10 20 -8 0 -4 5 9 11 26 13 28
26 7 34 -21 8 -20 54 1 54 11 0 15 -6 11 -20 -4 -16 0 -20 23 -20 24 0 27 3
22 25 -2 14 -8 25 -13 25 -5 0 -9 9 -9 20 0 11 -4 20 -10 20 -5 0 -10 6 -10
14 0 8 -6 21 -14 29 -8 7 -16 25 -18 38 -2 19 2 25 20 27 13 2 22 10 22 21 0
50 -33 32 -66 -35 -18 -36 -23 -58 -17 -67 13 -17 15 -67 3 -67 -6 0 -14 8
-17 18 -4 9 -11 20 -17 25 -8 5 -7 10 2 16 11 6 8 12 -11 27 -18 15 -22 25
-17 40 5 11 3 27 -4 36 -11 14 -14 14 -34 -2 -12 -10 -29 -36 -37 -57 l-14
-38 0 78 c-1 90 -9 109 -51 127 -46 19 -39 57 8 39 30 -12 53 4 34 23 -7 7
-12 24 -12 38 0 25 -16 50 -32 50 -5 0 -6 -11 -2 -24 3 -13 1 -27 -4 -30 -5
-3 -13 10 -16 29 -4 19 -18 43 -31 54 -14 10 -25 26 -25 35 0 11 -9 16 -31 16
-25 0 -29 3 -20 13 6 8 9 16 6 19 -3 2 -1 38 4 79 11 82 13 136 10 282 -2 97
11 147 25 93 3 -14 11 -26 16 -26 11 0 13 14 11 70 -1 19 3 49 8 65 l8 30 11
-27 c7 -16 8 -38 3 -56 -11 -37 -3 -48 32 -47 26 0 28 3 25 37 -1 20 1 40 5
44 14 14 6 24 -19 24 -15 0 -23 4 -19 10 4 6 15 8 25 5 23 -7 38 15 17 26 -16
10 -16 19 1 62 6 15 19 27 29 27 17 1 17 1 1 14 -27 20 -22 31 15 31 25 0 31
4 29 18 -2 13 4 17 28 17 28 0 30 2 24 26 -5 19 -4 25 5 20 6 -4 11 -15 11
-25 0 -24 88 -41 101 -20 4 8 6 16 3 18 -3 3 -9 -1 -14 -9 -8 -13 -10 -12 -10
3 0 9 5 17 10 17 6 0 10 9 10 20 0 24 -45 28 -54 5 -3 -8 -13 -15 -23 -15 -15
0 -15 2 3 14 26 19 31 81 8 90 -13 5 -14 9 -4 21 6 8 9 19 5 25 -3 5 1 10 9
10 9 0 16 9 16 20 0 13 -7 20 -20 20 -25 0 -39 27 -42 81 -2 35 1 44 15 47 10
2 17 -3 17 -12 0 -8 5 -27 10 -41 9 -23 13 -25 25 -15 8 7 12 16 9 21 -3 5 2
9 11 9 10 0 15 -5 12 -13 -4 -11 3 -12 36 -6 47 8 60 1 83 -45 22 -46 56 -84
61 -68 3 6 13 12 24 12 22 0 23 1 8 34 -18 39 2 56 65 56 59 0 83 14 88 50 2
19 9 25 28 25 22 0 25 -4 22 -33 -3 -31 -2 -33 17 -22 22 11 30 63 11 75 -6 4
-7 11 -4 17 4 6 10 5 15 -3 6 -10 9 -7 10 11 1 14 2 32 3 40 0 9 13 16 30 18
23 3 28 0 23 -12 -5 -12 0 -16 17 -16 14 0 27 6 29 13 3 6 6 3 6 -9 1 -27 54
-77 77 -72 25 4 30 28 6 28 -28 0 -44 24 -49 74 -5 43 -4 45 23 49 16 2 31 5
34 6 3 0 16 -6 28 -15z m-322 -89 c30 -16 25 -19 -13 -9 -13 4 -23 10 -23 15
0 12 3 11 36 -6z m-336 -39 c0 -3 -4 -8 -10 -11 -5 -3 -10 -1 -10 4 0 6 5 11
10 11 6 0 10 -2 10 -4z m-41 -45 c-3 -6 -10 -7 -18 -2 -7 5 -10 14 -6 21 9 14
29 -2 24 -19z m261 10 c0 -6 -4 -13 -10 -16 -5 -3 -10 1 -10 9 0 9 5 16 10 16
6 0 10 -4 10 -9z m-200 -21 c0 -23 -4 -24 -31 -10 -27 15 -24 30 6 30 18 0 25
-5 25 -20z m240 -12 c0 -5 -4 -8 -10 -8 -5 0 -10 10 -10 23 0 18 2 19 10 7 5
-8 10 -18 10 -22z m-873 -9 c-9 -6 -17 -16 -17 -24 0 -8 -4 -17 -10 -20 -6 -4
-10 7 -10 25 0 24 4 31 15 27 8 -4 17 -2 21 4 3 6 9 7 12 4 4 -4 -1 -11 -11
-16z m2093 -8 c0 -14 -18 -23 -30 -16 -6 4 -8 11 -5 16 8 12 35 12 35 0z
m-2140 -57 c0 -8 -4 -12 -10 -9 -5 3 -10 0 -10 -9 0 -18 -32 -76 -43 -76 -4 0
-2 10 5 23 7 12 13 24 13 27 12 46 45 80 45 44z m520 -74 c0 -6 -11 -8 -27 -4
-40 10 -41 14 -5 14 18 0 32 -5 32 -10z m-59 -39 c-8 -5 -20 -7 -28 -4 -21 8
-15 13 15 13 20 0 23 -3 13 -9z m-549 -33 c-7 -7 -12 -8 -12 -2 0 14 12 26 19
19 2 -3 -1 -11 -7 -17z m1641 -20 c-13 -12 -25 -19 -29 -15 -10 10 16 37 34
37 13 0 12 -4 -5 -22z m-1098 2 c8 -13 -5 -13 -25 0 -13 8 -13 10 2 10 9 0 20
-4 23 -10z m969 -32 c-3 -5 -12 -4 -20 3 -7 6 -11 15 -8 21 3 5 12 4 20 -3 7
-6 11 -15 8 -21z m903 5 c2 -6 -3 -13 -12 -16 -10 -5 -15 0 -15 14 0 21 21 22
27 2z m-1907 -31 c0 -14 -11 -21 -26 -15 -21 8 -17 23 6 23 11 0 20 -4 20 -8z
m-50 -306 c0 -3 -4 -8 -10 -11 -5 -3 -10 -1 -10 4 0 6 5 11 10 11 6 0 10 -2
10 -4z m1822 -83 c-6 -10 -20 -27 -33 -38 -24 -21 -19 -9 15 37 21 30 34 31
18 1z m-2062 -62 c0 -6 -4 -13 -10 -16 -5 -3 -10 1 -10 9 0 9 5 16 10 16 6 0
10 -4 10 -9z m67 -96 c6 -14 8 -27 4 -29 -4 -3 -8 -65 -10 -139 -2 -118 0
-135 14 -141 12 -4 14 -10 8 -19 -11 -14 -10 -53 1 -79 5 -10 20 -18 35 -19
14 0 35 -4 46 -9 15 -6 6 -9 -32 -9 -33 -1 -53 -5 -53 -12 0 -16 31 -38 53
-39 9 0 17 -8 17 -18 0 -9 11 -29 24 -42 l23 -25 -30 -25 c-23 -20 -28 -31
-23 -48 9 -29 27 -28 60 3 15 14 28 25 30 25 3 0 2 -15 -9 -83 l-6 -37 -29 15
c-16 8 -37 15 -46 15 -14 0 -15 2 -3 17 13 15 11 16 -13 9 -27 -6 -40 8 -15
17 16 6 0 22 -32 32 -19 6 -23 4 -18 -8 5 -12 -2 -11 -29 5 -48 28 -52 44 -20
77 44 45 30 68 -21 34 -24 -16 -26 -16 -38 0 -7 9 -16 17 -21 17 -5 0 -15 9
-22 20 -9 15 -23 20 -55 20 -26 0 -37 3 -29 9 7 4 24 6 38 3 26 -5 32 9 12 26
-7 5 -29 13 -48 17 -19 5 -29 10 -22 12 8 3 12 28 12 77 0 95 16 178 36 191
48 30 65 48 55 58 -15 15 -14 27 4 27 8 0 15 -7 15 -15 0 -8 4 -15 9 -15 13 0
25 -80 13 -92 -6 -6 -8 0 -4 19 5 25 4 27 -12 14 -9 -8 -14 -16 -11 -19 3 -3
0 -11 -6 -18 -14 -17 -3 -35 18 -27 11 4 14 2 11 -8 -3 -8 -14 -13 -26 -11
-12 2 -22 -2 -22 -7 0 -6 4 -11 10 -11 5 0 18 -10 30 -22 11 -12 20 -18 20
-13 0 4 10 0 21 -11 22 -19 22 -19 16 6 -5 23 -10 123 -8 177 1 15 6 21 15 17
9 -4 15 9 19 46 9 75 23 90 44 45z m3143 -43 c63 -31 75 -41 78 -64 3 -22 -2
-30 -23 -38 -28 -11 -155 -3 -169 10 -4 4 -5 36 -1 69 8 74 11 74 115 23z
m-3290 8 c0 -5 -4 -10 -10 -10 -5 0 -10 5 -10 10 0 6 5 10 10 10 6 0 10 -4 10
-10z m1467 -152 c-3 -8 -6 -5 -6 6 -1 11 2 17 5 13 3 -3 4 -12 1 -19z m33
-138 c0 -27 -4 -50 -8 -50 -4 0 -7 12 -6 28 1 15 2 37 3 50 2 43 11 21 11 -28z
m140 40 c0 -5 -5 -10 -11 -10 -5 0 -7 5 -4 10 3 6 8 10 11 10 2 0 4 -4 4 -10z
m58 -17 c-4 -36 -38 -45 -38 -10 0 27 7 37 27 37 10 0 13 -9 11 -27z m-1504
-38 c-4 -8 -8 -15 -10 -15 -2 0 -4 7 -4 15 0 8 4 15 10 15 5 0 7 -7 4 -15z
m1389 -35 c-4 -5 -21 -6 -38 -2 l-30 6 30 6 c33 7 51 2 38 -10z m-2225 -6 c4
-6 15 -13 24 -17 23 -8 34 -55 19 -78 -15 -25 -14 -29 8 -29 11 0 22 -4 26
-10 3 -5 12 -7 20 -3 9 3 15 -1 15 -11 0 -9 3 -16 8 -16 4 -1 33 -3 64 -6 47
-5 59 -3 64 10 14 37 54 4 54 -44 0 -13 8 -24 20 -27 18 -5 18 -7 4 -34 -8
-17 -10 -29 -4 -29 5 0 10 -12 10 -27 l0 -28 -74 0 c-41 0 -78 3 -82 8 -4 4
-16 7 -27 7 -54 0 -147 23 -147 36 0 8 -7 14 -15 14 -8 0 -15 6 -15 14 0 15
-21 26 -50 26 -10 0 -22 9 -25 20 -9 28 -76 69 -122 75 -20 2 -39 9 -42 13 -8
13 -67 42 -84 42 -8 0 -20 7 -27 15 -11 13 -8 15 14 15 16 0 26 6 26 15 0 24
35 35 114 35 55 0 79 4 88 15 10 12 28 15 71 12 32 -2 62 -8 65 -13z m2912 6
c0 -5 -4 -10 -10 -10 -5 0 -10 5 -10 10 0 6 5 10 10 10 6 0 10 -4 10 -10z
m-350 -59 c0 -21 -26 -36 -36 -20 -9 15 3 39 21 39 8 0 15 -9 15 -19z m446
-43 c-24 -31 -40 -31 -44 1 -5 34 14 51 42 38 l24 -11 -22 -28z m-608 15 c-3
-30 -25 -42 -34 -19 -9 22 2 46 21 46 12 0 15 -8 13 -27z m552 -33 c0 -5 -4
-10 -10 -10 -5 0 -10 5 -10 10 0 6 5 10 10 10 6 0 10 -4 10 -10z m-2343 -24
c2 -1 -1 -17 -6 -34 -8 -27 -7 -32 7 -32 15 0 15 -2 2 -10 -13 -9 -13 -12 4
-25 11 -8 15 -19 10 -26 -15 -25 -13 -59 4 -68 16 -9 16 -12 0 -43 -9 -18 -19
-42 -23 -53 -8 -22 -7 -26 -33 75 -5 19 -12 45 -16 57 -5 17 -2 22 15 25 30 4
37 28 10 35 -27 7 -48 77 -30 99 10 12 42 12 56 0z m2416 -8 c-4 -7 -8 -19 -9
-26 -4 -24 -14 -26 -14 -3 0 12 -4 19 -10 16 -5 -3 -10 -17 -10 -31 0 -33 -16
-31 -23 4 -7 31 13 52 51 52 16 0 21 -4 15 -12z m-103 -28 c-8 -5 -17 -7 -19
-4 -3 3 1 9 9 14 8 5 17 7 19 4 3 -3 -1 -9 -9 -14z m-2270 6 c0 -3 -4 -8 -10
-11 -5 -3 -10 -1 -10 4 0 6 5 11 10 11 6 0 10 -2 10 -4z m2370 -71 c-7 -9 -15
-13 -19 -10 -3 3 1 10 9 15 21 14 24 12 10 -5z m1440 0 c0 -10 -108 -54 -150
-60 -42 -5 -44 -5 -25 10 21 16 78 35 110 35 11 0 27 5 35 10 16 10 30 13 30
5z m-4103 -67 c-3 -7 -5 -2 -5 12 0 14 2 19 5 13 2 -7 2 -19 0 -25z m1570 -10
c-3 -8 -6 -5 -6 6 -1 11 2 17 5 13 3 -3 4 -12 1 -19z m-1197 8 c0 -11 -19 -15
-25 -6 -3 5 1 10 9 10 9 0 16 -2 16 -4z m3498 -9 c-21 -6 -38 -16 -38 -24 0
-7 -6 -13 -14 -13 -7 0 -35 -3 -62 -6 -45 -5 -48 -4 -30 10 10 8 38 18 62 22
25 3 47 10 50 15 3 5 20 8 37 8 l32 -2 -37 -10z m-3444 -36 c10 -11 34 -28 54
-38 l37 -18 -34 -3 c-27 -3 -39 2 -62 28 -29 31 -37 50 -21 50 5 0 17 -9 26
-19z m393 -13 c-3 -8 -6 -5 -6 6 -1 11 2 17 5 13 3 -3 4 -12 1 -19z m1243 7
c0 -8 -4 -15 -10 -15 -5 0 -10 7 -10 15 0 8 5 15 10 15 6 0 10 -7 10 -15z
m-1853 -62 c-3 -10 -5 -4 -5 12 0 17 2 24 5 18 2 -7 2 -21 0 -30z m493 18 c0
-11 4 -22 9 -26 5 -3 12 -18 16 -33 3 -15 17 -40 30 -55 29 -30 31 -37 11 -37
-15 0 -126 98 -126 111 0 4 4 19 10 33 12 32 50 36 50 7z m867 -13 c-3 -7 -5
-2 -5 12 0 14 2 19 5 13 2 -7 2 -19 0 -25z m485 17 c0 -5 -5 -11 -11 -13 -6
-2 -11 4 -11 13 0 9 5 15 11 13 6 -2 11 -8 11 -13z m1471 -22 c-7 -2 -21 -2
-30 0 -10 3 -4 5 12 5 17 0 24 -2 18 -5z m-133 -40 c-14 -9 -27 -20 -30 -23
-11 -14 -40 -19 -46 -8 -11 17 34 48 69 48 l31 0 -24 -17z m-3070 -42 c0 -9
-7 -3 -15 13 -19 36 -19 47 0 22 8 -11 15 -27 15 -35z m-930 29 c0 -5 -7 -10
-16 -10 -8 0 -12 5 -9 10 3 6 10 10 16 10 5 0 9 -4 9 -10z m1818 -22 c8 -21 8
-36 2 -42 -9 -9 -15 4 -11 27 1 4 -3 17 -9 27 -6 11 -7 20 -3 20 5 0 14 -14
21 -32z m287 22 c3 -5 -1 -10 -9 -10 -9 0 -16 5 -16 10 0 6 4 10 9 10 6 0 13
-4 16 -10z m-318 -56 c-9 -9 -28 6 -21 18 4 6 10 6 17 -1 6 -6 8 -13 4 -17z
m-1483 -49 c19 -14 18 -15 -17 -15 -26 0 -37 4 -37 15 0 19 29 19 54 0z m1413
-7 c-3 -8 -6 -5 -6 6 -1 11 2 17 5 13 3 -3 4 -12 1 -19z m-399 -18 c13 -14 17
-29 13 -57 l-6 -38 -3 35 c-2 19 -13 45 -24 58 -12 12 -16 22 -10 22 6 0 20
-9 30 -20z m689 -2 c-3 -8 -6 -5 -6 6 -1 11 2 17 5 13 3 -3 4 -12 1 -19z m157
-3 c27 -27 22 -31 -18 -15 -14 5 -26 16 -26 25 0 22 16 18 44 -10z m-1944 4
c0 -21 -27 -37 -78 -44 -43 -6 -52 -4 -52 8 0 11 15 17 50 22 27 4 52 11 56
16 7 12 24 11 24 -2z m1830 1 c0 -5 -4 -10 -10 -10 -5 0 -10 5 -10 10 0 6 5
10 10 10 6 0 10 -4 10 -10z m-768 -52 c-7 -7 -12 -8 -12 -2 0 6 3 14 7 17 3 4
9 5 12 2 2 -3 -1 -11 -7 -17z m822 -3 c3 -8 1 -15 -4 -15 -6 0 -10 7 -10 15 0
8 2 15 4 15 2 0 6 -7 10 -15z m-144 -45 c0 -5 -4 -10 -10 -10 -5 0 -10 5 -10
10 0 6 5 10 10 10 6 0 10 -4 10 -10z m-208 -32 c-7 -7 -12 -8 -12 -2 0 6 3 14
7 17 3 4 9 5 12 2 2 -3 -1 -11 -7 -17z m923 2 c3 -5 -3 -10 -15 -10 -12 0 -18
5 -15 10 3 6 10 10 15 10 5 0 12 -4 15 -10z m1193 -85 c28 -14 59 -25 70 -25
12 0 23 -4 27 -9 3 -5 22 -15 43 -22 20 -6 39 -15 42 -19 4 -6 107 -63 191
-105 20 -10 26 -25 10 -25 -6 0 -13 5 -16 10 -3 6 -17 10 -30 10 -13 0 -26 4
-29 9 -3 5 -18 12 -33 16 -16 3 -46 15 -68 25 -22 10 -92 40 -155 66 -63 26
-117 49 -118 50 -5 3 8 44 13 44 2 0 26 -11 53 -25z m-1308 -66 c0 -5 -7 -9
-15 -9 -15 0 -20 12 -9 23 8 8 24 -1 24 -14z m106 -24 c-21 -16 -32 -13 -21 4
3 6 14 11 23 11 15 -1 15 -2 -2 -15z m-136 -10 c0 -10 -9 -15 -27 -14 -17 1
-21 3 -10 6 9 2 17 9 17 14 0 5 5 9 10 9 6 0 10 -7 10 -15z m1829 -137 c39
-17 69 -33 67 -35 -9 -9 -97 21 -127 43 -44 33 -25 30 60 -8z m-3991 5 c-10
-2 -28 -2 -40 0 -13 2 -5 4 17 4 22 1 32 -1 23 -4z m47 -3 c3 -6 -1 -7 -9 -4
-18 7 -21 14 -7 14 6 0 13 -4 16 -10z m-360 -110 c3 -5 -1 -10 -9 -10 -9 0
-16 5 -16 10 0 6 4 10 9 10 6 0 13 -4 16 -10z m332 -15 c61 -26 73 -42 73 -98
l0 -50 43 7 c23 4 52 14 64 22 30 19 47 18 69 -7 18 -20 18 -21 1 -34 -10 -7
-48 -21 -85 -30 -37 -9 -80 -23 -95 -31 -35 -17 -67 -18 -68 -1 -1 6 -1 31 0
54 3 54 -11 80 -56 98 -37 16 -158 21 -135 6 19 -12 11 -45 -11 -49 -55 -11
-109 38 -87 78 28 52 196 73 287 35z m457 -51 c9 -22 -3 -32 -14 -14 -12 19
-12 30 -1 30 5 0 12 -7 15 -16z m-1064 -29 c-7 -9 -15 -13 -19 -10 -3 3 1 10
9 15 21 14 24 12 10 -5z m504 -51 c9 -3 16 -12 16 -19 0 -13 -30 -27 -133 -60
-54 -18 -58 -18 -74 -2 -24 23 -9 36 75 64 72 24 91 27 116 17z m4127 -484
c62 -43 83 -67 27 -31 -18 11 -48 27 -65 37 -18 9 -33 20 -33 25 0 15 8 11 71
-31z m-1096 -59 c3 -6 -4 -15 -15 -21 -16 -8 -20 -8 -20 3 0 25 23 36 35 18z
m1340 -106 c9 -11 27 -21 129 -71 21 -10 33 -20 28 -22 -14 -4 -212 99 -212
111 0 11 42 -2 55 -18z m-4400 -65 c3 -5 1 -10 -4 -10 -6 0 -11 5 -11 10 0 6
2 10 4 10 3 0 8 -4 11 -10z m76 -36 c17 -8 29 -17 27 -20 -7 -6 -68 19 -68 28
0 11 7 10 41 -8z m-364 -110 c-3 -3 -12 -4 -19 -1 -8 3 -5 6 6 6 11 1 17 -2
13 -5z m662 -30 c2 -2 -5 -4 -15 -4 -11 0 -25 -5 -30 -10 -13 -13 -77 7 -68
21 5 8 103 2 113 -7z m-481 -53 c4 -23 -16 -29 -36 -9 -9 9 -15 9 -24 0 -7 -7
-23 -12 -36 -12 -13 0 -20 -4 -17 -10 3 -5 -1 -10 -9 -10 -31 0 -25 19 9 26
19 3 35 10 35 15 0 5 9 9 20 9 13 0 18 5 14 15 -5 12 -2 13 17 6 13 -4 25 -18
27 -30z m-241 3 c-9 -9 -28 6 -21 18 4 6 10 6 17 -1 6 -6 8 -13 4 -17z m277
-2 c3 -5 -1 -9 -9 -9 -8 0 -12 4 -9 9 3 4 7 8 9 8 2 0 6 -4 9 -8z m-326 -19
c-10 -2 -26 -2 -35 0 -10 3 -2 5 17 5 19 0 27 -2 18 -5z m2887 -23 c-28 -12
-45 -12 -45 0 0 6 15 10 33 9 27 0 29 -2 12 -9z m1065 0 c0 -5 -4 -10 -9 -10
-6 0 -13 5 -16 10 -3 6 1 10 9 10 9 0 16 -4 16 -10z m-3666 -8 c3 -5 -14 -9
-37 -9 -35 -1 -38 0 -17 7 34 11 48 12 54 2z m-227 -18 c-3 -3 -12 -4 -19 -1
-8 3 -5 6 6 6 11 1 17 -2 13 -5z m1233 -71 c0 -10 -14 -26 -30 -35 -20 -11
-28 -22 -24 -32 4 -11 0 -16 -14 -16 -37 0 -31 26 14 54 24 15 44 32 44 37 0
5 2 9 5 9 3 0 5 -8 5 -17z"/>
<path d="M2827 3864 c-14 -15 -6 -34 14 -34 14 0 19 5 17 17 -3 18 -20 27 -31
17z"/>
<path d="M2223 3795 c-7 -20 2 -29 19 -19 7 5 21 7 31 6 10 -2 17 3 17 12 0
22 -58 22 -67 1z"/>
<path d="M2115 3661 c-3 -5 0 -13 5 -16 15 -9 60 3 60 15 0 13 -57 13 -65 1z"/>
<path d="M1780 3540 c0 -6 -11 -22 -25 -34 l-26 -24 41 -4 c43 -4 46 2 34 50
-6 22 -24 31 -24 12z"/>
<path d="M1788 3453 c7 -3 16 -2 19 1 4 3 -2 6 -13 5 -11 0 -14 -3 -6 -6z"/>
<path d="M3480 3230 c0 -5 5 -10 10 -10 6 0 10 5 10 10 0 6 -4 10 -10 10 -5 0
-10 -4 -10 -10z"/>
<path d="M1687 2871 c-4 -17 -3 -21 5 -13 5 5 8 16 6 23 -3 8 -7 3 -11 -10z"/>
<path d="M3610 2880 c0 -5 5 -10 10 -10 6 0 10 5 10 10 0 6 -4 10 -10 10 -5 0
-10 -4 -10 -10z"/>
<path d="M1583 2802 c-11 -19 -6 -72 7 -72 10 0 18 53 10 74 -5 14 -6 14 -17
-2z"/>
<path d="M1702 2800 c0 -14 2 -19 5 -12 2 6 2 18 0 25 -3 6 -5 1 -5 -13z"/>
<path d="M1440 2673 c0 -43 5 -41 13 5 4 18 2 32 -3 32 -6 0 -10 -16 -10 -37z"/>
<path d="M1570 2680 c0 -5 5 -10 10 -10 6 0 10 5 10 10 0 6 -4 10 -10 10 -5 0
-10 -4 -10 -10z"/>
<path d="M3455 2660 c3 -5 12 -10 20 -10 8 0 17 5 20 10 4 6 -5 10 -20 10 -15
0 -24 -4 -20 -10z"/>
<path d="M1520 2642 c0 -11 7 -23 16 -26 11 -4 15 0 12 16 -4 28 -28 36 -28
10z"/>
<path d="M3185 2630 c3 -5 16 -10 28 -9 21 0 21 1 2 9 -28 12 -37 12 -30 0z"/>
<path d="M1558 2611 c-14 -13 -15 -20 -6 -29 9 -9 8 -12 -5 -12 -27 0 -20 -25
8 -26 14 -1 25 -1 25 0 8 27 9 75 3 79 -4 2 -16 -3 -25 -12z"/>
<path d="M1406 2581 c-4 -7 -5 -15 -2 -18 9 -9 19 4 14 18 -4 11 -6 11 -12 0z"/>
<path d="M3181 2555 c1 -19 18 -51 18 -35 0 8 -4 22 -9 30 -5 8 -9 11 -9 5z"/>
<path d="M2060 2526 c0 -9 5 -16 10 -16 6 0 10 4 10 9 0 6 -4 13 -10 16 -5 3
-10 -1 -10 -9z"/>
<path d="M1534 2507 c1 -13 6 -29 10 -36 10 -15 -12 -33 -28 -24 -5 4 -7 -4
-3 -18 4 -13 7 -28 7 -33 0 -4 7 -5 16 -2 21 8 40 -4 23 -15 -11 -7 -10 -11 6
-23 16 -12 17 -17 8 -27 -10 -10 -17 -9 -33 6 -20 18 -20 18 -20 -14 0 -29 2
-31 21 -21 29 16 47 6 51 -27 4 -34 53 -67 67 -44 14 22 -7 69 -32 73 -17 2
-21 9 -19 28 2 13 10 29 18 35 10 8 11 19 4 50 -6 26 -5 44 1 50 6 6 -2 14
-23 21 -22 7 -32 17 -30 28 2 11 -4 16 -22 16 -20 0 -24 -5 -22 -23z m56 -69
c21 -23 26 -38 11 -38 -5 0 -16 14 -25 30 -17 36 -14 38 14 8z"/>
<path d="M2360 2501 c0 -6 5 -13 10 -16 6 -3 10 1 10 9 0 9 -4 16 -10 16 -5 0
-10 -4 -10 -9z"/>
<path d="M2147 2393 c-4 -3 -7 -11 -7 -17 0 -6 5 -5 12 2 6 6 9 14 7 17 -3 3
-9 2 -12 -2z"/>
<path d="M2169 2303 c-5 -47 -3 -63 6 -63 14 0 18 57 5 65 -5 3 -10 3 -11 -2z"/>
<path d="M2223 2243 c9 -2 23 -2 30 0 6 3 -1 5 -18 5 -16 0 -22 -2 -12 -5z"/>
<path d="M2050 2223 c0 -4 9 -23 20 -41 l21 -34 -23 8 c-23 7 -23 6 -4 -15 11
-11 25 -21 33 -21 7 0 25 -7 38 -16 15 -10 25 -12 25 -5 0 6 -4 11 -9 11 -5 0
-11 8 -15 18 -12 37 -55 97 -70 100 -9 2 -16 0 -16 -5z"/>
<path d="M2190 2220 c0 -5 10 -10 23 -10 18 0 19 2 7 10 -19 13 -30 13 -30 0z"/>
<path d="M3096 2199 c-3 -19 -8 -47 -11 -63 -5 -36 -14 -44 -25 -27 -6 11 -13
6 -29 -20 -12 -19 -24 -45 -28 -59 -3 -14 -10 -31 -16 -38 -8 -10 -5 -14 12
-19 18 -5 21 -10 16 -33 -3 -16 -2 -30 2 -33 13 -8 63 58 69 93 4 16 10 30 14
30 8 0 9 5 16 103 4 49 2 83 -4 89 -7 7 -12 0 -16 -23z"/>
<path d="M1722 2198 c-16 -16 -15 -25 4 -32 24 -9 47 13 33 30 -14 17 -22 17
-37 2z"/>
<path d="M1975 2160 c9 -30 13 -35 21 -27 3 3 -2 16 -11 29 l-17 23 7 -25z"/>
<path d="M3215 2100 c-3 -5 1 -10 10 -10 9 0 13 5 10 10 -3 6 -8 10 -10 10 -2
0 -7 -4 -10 -10z"/>
<path d="M3180 2061 c0 -17 4 -32 8 -35 4 -2 6 11 4 30 -5 42 -12 45 -12 5z"/>
<path d="M3210 2021 c0 -5 -9 -11 -21 -14 -12 -3 -18 -10 -14 -16 11 -19 31
-12 43 14 7 15 8 25 2 25 -6 0 -10 -4 -10 -9z"/>
<path d="M1776 1979 c10 -12 18 -23 17 -25 -2 -2 -3 -5 -2 -6 1 -3 9 -38 12
-55 4 -18 45 -63 57 -63 5 0 10 7 10 15 0 8 -4 15 -10 15 -5 0 -10 6 -10 14 0
8 -6 16 -14 19 -8 3 -20 28 -27 56 -10 40 -17 51 -32 51 -20 0 -20 0 -1 -21z"/>
<path d="M2893 1993 c9 -2 23 -2 30 0 6 3 -1 5 -18 5 -16 0 -22 -2 -12 -5z"/>
<path d="M2950 1941 c-30 -8 -33 -34 -5 -40 11 -2 24 -8 28 -15 4 -6 5 2 1 18
-5 19 -2 31 7 37 16 10 5 10 -31 0z"/>
<path d="M3092 1931 c-11 -7 -11 -9 2 -14 10 -4 16 -1 16 8 0 17 -1 17 -18 6z"/>
<path d="M2901 1869 c-12 -33 3 -46 34 -29 24 13 35 40 16 40 -5 0 -16 3 -25
6 -11 4 -19 -2 -25 -17z"/>
<path d="M1894 1819 c-8 -14 11 -33 25 -25 11 7 4 36 -9 36 -5 0 -12 -5 -16
-11z"/>
<path d="M2995 1770 c-1 -21 3 -36 7 -34 10 6 11 61 1 67 -5 3 -8 -12 -8 -33z"/>
<path d="M2665 1570 c3 -5 8 -10 11 -10 2 0 4 5 4 10 0 6 -5 10 -11 10 -5 0
-7 -4 -4 -10z"/>
<path d="M1140 2571 c0 -24 12 -32 30 -21 11 7 11 11 -3 24 -21 21 -27 20 -27
-3z"/>
<path d="M1140 2500 c0 -13 5 -20 13 -17 6 2 12 10 12 17 0 7 -6 15 -12 18 -8
2 -13 -5 -13 -18z"/>
<path d="M1360 2300 c0 -5 5 -10 11 -10 5 0 7 5 4 10 -3 6 -8 10 -11 10 -2 0
-4 -4 -4 -10z"/>
<path d="M1335 2250 c10 -11 20 -18 23 -16 5 6 -23 36 -34 36 -4 0 1 -9 11
-20z"/>
<path d="M390 230 c0 -5 5 -10 10 -10 6 0 10 5 10 10 0 6 -4 10 -10 10 -5 0
-10 -4 -10 -10z"/>
<path d="M623 1862 c-13 -2 -23 -10 -23 -18 0 -8 -4 -12 -10 -9 -5 3 -10 -1
-10 -9 0 -19 11 -21 28 -4 7 7 16 8 24 1 9 -6 25 -5 48 3 29 11 31 13 11 13
-13 1 -29 7 -35 14 -6 7 -21 11 -33 9z"/>
<path d="M780 1821 c0 -5 7 -11 14 -14 10 -4 13 -1 9 9 -6 15 -23 19 -23 5z"/>
<path d="M440 1766 c0 -2 7 -7 16 -10 8 -3 12 -2 9 4 -6 10 -25 14 -25 6z"/>
<path d="M0 1680 c0 -56 7 -60 67 -35 31 13 34 17 22 31 -7 8 -30 24 -51 35
l-38 19 0 -50z"/>
<path d="M15 1359 c-4 -6 -5 -12 -2 -15 2 -3 7 2 10 11 7 17 1 20 -8 4z"/>
<path d="M4025 30 c-49 -5 -39 -7 55 -7 63 -1 124 3 135 7 24 10 -99 10 -190
0z"/>
</g>
</svg>
