<?xml version="1.0" standalone="no"?>
<!DOCTYPE svg PUBLIC "-//W3C//DTD SVG 20010904//EN"
 "http://www.w3.org/TR/2001/REC-SVG-20010904/DTD/svg10.dtd">
<svg version="1.0" xmlns="http://www.w3.org/2000/svg"
 width="180.000000pt" height="180.000000pt" viewBox="0 0 180.000000 180.000000"
 preserveAspectRatio="xMidYMid meet">
<metadata>
Created by potrace 1.14, written by Peter Selinger 2001-2017
</metadata>
<g transform="translate(0.000000,180.000000) scale(0.100000,-0.100000)"
fill="#000000" stroke="none">
<path d="M0 1339 l0 -461 31 6 c17 3 40 6 51 6 11 0 16 4 12 11 -4 8 1 9 15 4
12 -4 43 -7 69 -7 53 0 82 -12 82 -34 0 -11 -6 -13 -20 -9 -11 3 -20 2 -20 -4
0 -5 14 -11 32 -13 27 -3 33 -9 46 -46 8 -25 11 -47 5 -53 -13 -13 -113 14
-159 44 -47 29 -110 57 -130 57 -23 0 -16 -37 9 -44 12 -3 33 -15 47 -27 20
-17 21 -20 5 -14 -11 4 -32 11 -47 15 l-28 9 0 -64 c0 -61 1 -64 35 -84 48
-28 49 -66 2 -86 -20 -9 -25 -14 -14 -15 32 0 93 41 80 54 -4 3 -1 6 5 6 7 0
12 7 12 15 0 8 -4 15 -10 15 -5 0 -10 7 -10 15 0 15 72 41 100 36 19 -3 7 8
-45 43 -22 14 -33 26 -26 26 28 0 159 -70 174 -93 8 -13 30 -30 47 -37 20 -8
36 -25 45 -48 20 -47 19 -52 -9 -52 -21 0 -24 -4 -20 -25 2 -14 0 -25 -6 -25
-5 0 -10 9 -10 20 0 23 -29 27 -60 8 -17 -11 -22 -10 -29 0 -4 8 -41 15 -98
18 -86 6 -91 5 -106 -16 -12 -17 -13 -28 -6 -42 13 -24 -15 -25 -31 0 -11 16
-11 16 -6 0 3 -10 1 -20 -4 -23 -6 -4 -10 -89 -10 -205 0 -187 1 -200 19 -210
30 -16 448 -14 454 3 4 9 6 9 6 -1 1 -10 88 -12 419 -12 385 1 420 3 455 20
33 16 118 29 204 29 37 0 103 -25 103 -39 0 -6 31 -10 70 -10 l70 0 0 305 c0
284 -1 305 -17 305 -17 1 -17 1 0 14 16 12 17 53 17 595 l0 581 -480 0 c-264
0 -480 -2 -480 -5 0 -2 12 -29 26 -58 24 -52 137 -167 163 -167 6 0 17 12 25
28 18 32 20 21 5 -30 -6 -25 -16 -38 -27 -38 -26 0 -136 118 -166 178 -15 28
-31 52 -38 52 -6 0 -26 -11 -45 -26 -44 -33 -42 -19 4 28 l37 38 -412 0 -412
0 0 -461z m1170 354 c0 -12 -3 -13 -14 -4 -10 8 -20 6 -40 -10 -40 -31 -44
-15 -6 21 25 24 36 28 46 19 8 -6 14 -18 14 -26z m-529 -57 c11 -14 29 -26 40
-26 16 0 19 -4 13 -22 -3 -13 -8 -24 -9 -26 -4 -4 -89 86 -93 99 -2 5 -10 9
-18 9 -15 0 -19 12 -8 23 8 8 48 -23 75 -57z m653 -111 c86 -64 137 -118 166
-174 29 -57 25 -62 -9 -10 -36 55 -99 115 -173 163 -41 27 -60 47 -72 77 -20
49 -20 63 -1 27 8 -15 48 -52 89 -83z m-434 -35 c0 -5 -5 -10 -11 -10 -5 0 -7
5 -4 10 3 6 8 10 11 10 2 0 4 -4 4 -10z m43 -86 c9 -10 -4 -34 -19 -34 -8 0
-14 6 -14 13 0 22 19 35 33 21z m-465 -60 c-18 -25 -37 -48 -43 -52 -5 -3 3
12 19 34 45 60 48 64 53 64 2 0 -11 -21 -29 -46z m601 8 c31 -16 61 -38 66
-50 12 -23 73 -82 83 -81 31 5 47 -31 57 -128 5 -47 10 -60 21 -56 10 4 14 -3
14 -20 0 -30 -17 -45 -26 -23 -3 9 -12 16 -20 16 -8 0 -14 5 -14 10 0 6 -13
10 -30 10 -20 0 -28 4 -24 13 3 8 -2 14 -11 14 -8 0 -15 -6 -15 -13 0 -7 -12
-22 -27 -33 -31 -22 -35 -20 43 -27 44 -3 70 -19 87 -53 15 -30 6 -54 -17 -45
-14 5 -50 -71 -41 -86 4 -6 -1 -7 -11 -3 -14 5 -16 2 -12 -15 7 -26 -25 -98
-50 -110 -9 -5 -23 -7 -29 -5 -8 3 -13 -5 -13 -22 0 -35 -32 -97 -38 -72 -5
24 -17 21 -35 -7 -13 -19 -24 -23 -57 -22 -23 1 -45 8 -49 15 -6 9 -11 10 -15
2 -10 -15 -79 -14 -94 1 -17 17 -15 38 5 38 13 0 14 3 5 12 -17 17 -15 33 2
19 19 -16 32 5 16 24 -8 9 -8 15 -2 15 6 0 13 -6 16 -12 4 -10 8 -10 11 -2 3
7 15 10 26 7 17 -5 19 -1 17 26 -1 17 -5 31 -8 31 -3 0 -18 11 -34 25 -37 32
-41 31 -56 -4 -9 -22 -16 -27 -32 -23 -17 4 -19 1 -13 -17 9 -30 -12 -26 -28
6 -14 27 -15 27 -22 4 -3 -12 -2 -28 4 -35 13 -15 4 -53 -14 -60 -8 -3 -19 2
-25 10 -7 8 -21 14 -31 14 -19 0 -35 33 -24 51 4 5 0 18 -8 27 -20 23 -31 62
-18 62 6 0 11 7 11 15 0 23 -13 18 -33 -12 l-18 -28 4 32 c2 18 0 30 -4 28 -4
-3 -12 1 -18 9 -9 11 -7 15 7 18 11 3 26 2 34 -3 10 -5 15 -4 15 6 0 8 -3 12
-7 10 -4 -2 -23 4 -43 14 -19 10 -41 15 -47 11 -12 -7 -4 -38 16 -57 7 -7 10
-22 7 -33 -4 -16 -2 -19 11 -14 9 3 16 1 16 -4 0 -19 -21 -24 -38 -9 -9 7 -26
17 -36 21 -15 5 -17 9 -8 18 17 17 15 28 -3 22 -9 -4 -25 4 -40 20 -29 31 -34
96 -10 116 8 7 15 19 15 27 0 10 6 12 20 8 11 -4 20 -2 20 4 0 26 19 8 23 -21
2 -18 5 -3 5 35 1 37 6 67 12 67 6 0 10 10 10 21 0 18 2 20 16 9 8 -8 14 -9
13 -4 -4 15 12 74 20 74 4 0 18 8 29 19 24 20 28 51 11 83 -8 14 -8 23 0 31 8
8 11 7 11 -3 1 -11 4 -9 11 4 11 17 13 16 40 -15 28 -33 29 -33 43 -14 8 11
12 23 10 27 -3 5 -1 8 5 8 5 0 17 7 25 16 9 8 16 11 16 5 0 -5 -4 -13 -10 -16
-5 -3 -10 -11 -10 -17 0 -7 5 -6 15 2 8 6 20 8 26 4 8 -4 9 -3 5 4 -4 6 3 21
15 33 17 17 23 19 30 8 7 -11 9 -10 9 4 0 10 8 17 20 17 11 0 20 -4 20 -9 0
-14 43 -21 57 -9 7 5 10 15 6 21 -10 17 54 0 116 -31z m-469 -102 c0 -5 -4
-10 -9 -10 -5 0 -12 -11 -15 -25 -4 -14 -10 -25 -15 -25 -5 0 -1 16 7 35 15
33 32 46 32 25z m-130 -210 c0 -5 -2 -10 -4 -10 -3 0 -8 5 -11 10 -3 6 -1 10
4 10 6 0 11 -4 11 -10z m1150 -75 c0 -10 -10 -15 -30 -15 -32 0 -47 18 -36 45
5 14 9 14 36 0 16 -8 30 -22 30 -30z m-330 -140 c0 -19 -40 -26 -47 -9 -8 22
16 47 33 33 8 -6 14 -17 14 -24z m-854 -41 c5 -26 2 -40 -8 -51 -14 -13 -16
-12 -20 11 -3 15 -1 29 4 32 5 3 4 12 -2 19 -13 15 -4 39 10 30 5 -3 12 -22
16 -41z m1344 2 c0 -5 -135 -46 -147 -45 -8 1 125 48 140 48 4 1 7 -1 7 -3z
m-1263 -62 c-7 -7 -37 7 -37 17 0 6 9 5 21 -1 11 -7 19 -14 16 -16z m81 -9
c16 -35 15 -37 -8 -23 -11 7 -20 21 -20 30 0 26 15 22 28 -7z m942 -5 c-20
-13 -33 -13 -25 0 3 6 14 10 23 10 15 0 15 -2 2 -10z m-940 -76 c0 -16 -42 -4
-48 14 -2 8 3 10 14 5 13 -5 15 -3 9 8 -8 12 -6 12 8 0 9 -7 17 -20 17 -27z
m994 -100 c90 -51 88 -51 -34 1 -90 39 -127 63 -76 51 15 -4 65 -27 110 -52z
m-1339 -74 c15 -6 29 -19 32 -31 5 -16 11 -19 34 -14 17 4 29 2 29 -4 0 -14
-9 -18 -53 -26 -32 -6 -37 -5 -37 12 0 35 -52 61 -62 31 -6 -16 -38 -2 -38 16
0 24 52 32 95 16z m-32 -60 c-4 -5 -21 -12 -37 -16 -22 -5 -28 -4 -24 7 5 14
47 29 61 21 5 -2 5 -8 0 -12z m112 -308 c-3 -3 -11 0 -18 7 -9 10 -8 11 6 5
10 -3 15 -9 12 -12z m1135 -26 c0 -3 -4 -8 -10 -11 -5 -3 -10 -1 -10 4 0 6 5
11 10 11 6 0 10 -2 10 -4z"/>
<path d="M867 1263 c-14 -16 -32 -33 -39 -40 -21 -20 -35 -38 -51 -70 -15 -28
-38 -42 -93 -57 -15 -5 -26 2 -42 24 -23 31 -64 41 -78 18 -5 -8 -2 -9 9 -5
11 4 20 -1 27 -13 7 -14 7 -20 0 -20 -24 0 -7 -29 23 -39 26 -9 46 -7 101 9
37 10 74 25 82 31 18 15 56 -3 78 -36 20 -30 33 -100 17 -91 -9 6 -10 0 -5
-20 6 -22 4 -26 -9 -21 -10 4 -17 -1 -20 -14 -4 -13 -1 -19 6 -16 9 3 11 -7 9
-33 -2 -21 1 -41 7 -44 6 -4 11 -2 11 3 0 6 5 11 10 11 6 0 10 -18 10 -39 0
-22 5 -43 10 -46 6 -3 10 -31 10 -61 0 -63 16 -65 26 -3 5 28 11 39 20 35 14
-5 18 5 15 33 -2 7 2 10 8 6 6 -3 8 -18 5 -33 -4 -15 -4 -24 0 -21 4 4 8 20
11 37 5 40 12 52 29 46 17 -6 24 20 21 75 -3 57 -20 74 -36 35 l-12 -29 -9 53
c-9 52 -10 53 -29 36 -25 -22 -24 -10 1 26 11 16 20 32 19 37 -1 4 1 17 5 28
4 11 13 33 18 48 9 22 16 27 32 23 11 -3 26 0 33 6 10 8 13 5 13 -13 0 -31 11
-46 33 -46 20 0 23 32 3 40 -7 3 -16 17 -20 32 -9 36 -35 75 -51 75 -7 0 -24
9 -39 21 -15 12 -33 18 -44 15 -11 -4 -29 2 -45 14 -34 27 -49 25 -80 -7z
m143 -363 c0 -5 -4 -10 -10 -10 -5 0 -10 5 -10 10 0 6 5 10 10 10 6 0 10 -4
10 -10z m16 -67 c-10 -10 -19 5 -10 18 6 11 8 11 12 0 2 -7 1 -15 -2 -18z"/>
<path d="M421 934 c0 -11 3 -14 6 -6 3 7 2 16 -1 19 -3 4 -6 -2 -5 -13z"/>
<path d="M1131 884 c0 -11 3 -14 6 -6 3 7 2 16 -1 19 -3 4 -6 -2 -5 -13z"/>
<path d="M848 825 c-8 -8 3 -55 13 -55 16 0 29 36 17 48 -13 13 -22 15 -30 7z"/>
<path d="M596 791 c-4 -6 -2 -11 5 -11 8 0 8 -4 -1 -15 -11 -13 -10 -14 4 -9
18 7 19 13 7 33 -6 9 -11 10 -15 2z"/>
<path d="M860 751 c0 -6 5 -13 10 -16 6 -3 10 1 10 9 0 9 -4 16 -10 16 -5 0
-10 -4 -10 -9z"/>
<path d="M590 729 c0 -5 5 -7 10 -4 6 3 10 8 10 11 0 2 -4 4 -10 4 -5 0 -10
-5 -10 -11z"/>
<path d="M1059 719 c-8 -15 -8 -24 0 -32 13 -13 18 -9 26 26 9 33 -9 37 -26 6z"/>
<path d="M990 664 c0 -14 4 -23 10 -19 6 3 10 15 10 26 0 10 -4 19 -10 19 -5
0 -10 -12 -10 -26z"/>
<path d="M845 629 c5 -15 4 -19 -4 -15 -6 4 -11 2 -11 -3 0 -6 7 -11 15 -11 9
0 15 9 15 25 0 14 -5 25 -11 25 -6 0 -8 -9 -4 -21z"/>
<path d="M0 585 c0 -9 6 -12 15 -9 8 4 12 10 9 15 -8 14 -24 10 -24 -6z"/>
</g>
</svg>
